<svg xmlns="http://www.w3.org/2000/svg" xmlns:xlink="http://www.w3.org/1999/xlink" width="500" zoomAndPan="magnify" viewBox="0 0 375 374.999991" height="500" preserveAspectRatio="xMidYMid meet" version="1.0"><defs><g/><clipPath id="abea408f7e"><path d="M 39.699219 123.636719 L 62.308594 123.636719 L 62.308594 146.25 L 39.699219 146.25 Z M 39.699219 123.636719 " clip-rule="nonzero"/></clipPath><clipPath id="41e6fa5733"><path d="M 75.878906 111.582031 L 98.492188 111.582031 L 98.492188 134.195312 L 75.878906 134.195312 Z M 75.878906 111.582031 " clip-rule="nonzero"/></clipPath><clipPath id="da08293d0a"><path d="M 112.058594 123.636719 L 134.671875 123.636719 L 134.671875 146.25 L 112.058594 146.25 Z M 112.058594 123.636719 " clip-rule="nonzero"/></clipPath></defs><g clip-path="url(#abea408f7e)"><path fill="#9f4e80" d="M 51.003906 123.636719 C 50.261719 123.636719 49.527344 123.710938 48.800781 123.855469 C 48.070312 124 47.363281 124.214844 46.679688 124.5 C 45.992188 124.78125 45.339844 125.128906 44.722656 125.542969 C 44.105469 125.957031 43.535156 126.425781 43.011719 126.949219 C 42.484375 127.472656 42.015625 128.046875 41.605469 128.664062 C 41.191406 129.28125 40.84375 129.929688 40.558594 130.617188 C 40.273438 131.304688 40.0625 132.007812 39.914062 132.738281 C 39.769531 133.464844 39.699219 134.199219 39.699219 134.945312 C 39.699219 135.6875 39.769531 136.421875 39.914062 137.148438 C 40.0625 137.878906 40.273438 138.585938 40.558594 139.269531 C 40.84375 139.957031 41.191406 140.609375 41.605469 141.226562 C 42.015625 141.84375 42.484375 142.414062 43.011719 142.9375 C 43.535156 143.460938 44.105469 143.929688 44.722656 144.34375 C 45.339844 144.757812 45.992188 145.105469 46.679688 145.390625 C 47.363281 145.671875 48.070312 145.886719 48.800781 146.03125 C 49.527344 146.175781 50.261719 146.25 51.003906 146.25 C 51.746094 146.25 52.480469 146.175781 53.210938 146.03125 C 53.9375 145.886719 54.644531 145.671875 55.332031 145.390625 C 56.015625 145.105469 56.667969 144.757812 57.285156 144.34375 C 57.902344 143.929688 58.472656 143.460938 59 142.9375 C 59.523438 142.414062 59.992188 141.84375 60.40625 141.226562 C 60.816406 140.609375 61.164062 139.957031 61.449219 139.269531 C 61.734375 138.585938 61.949219 137.878906 62.09375 137.148438 C 62.238281 136.421875 62.308594 135.6875 62.308594 134.945312 C 62.308594 134.199219 62.238281 133.464844 62.09375 132.738281 C 61.949219 132.007812 61.734375 131.304688 61.449219 130.617188 C 61.164062 129.929688 60.816406 129.28125 60.40625 128.664062 C 59.992188 128.046875 59.523438 127.472656 59 126.949219 C 58.472656 126.425781 57.902344 125.957031 57.285156 125.542969 C 56.667969 125.128906 56.015625 124.78125 55.332031 124.5 C 54.644531 124.214844 53.9375 124 53.210938 123.855469 C 52.480469 123.710938 51.746094 123.636719 51.003906 123.636719 Z M 51.003906 123.636719 " fill-opacity="1" fill-rule="nonzero"/></g><g clip-path="url(#41e6fa5733)"><path fill="#a2845d" d="M 87.183594 111.582031 C 86.441406 111.582031 85.707031 111.652344 84.980469 111.800781 C 84.25 111.945312 83.542969 112.160156 82.859375 112.441406 C 82.171875 112.726562 81.519531 113.074219 80.902344 113.488281 C 80.285156 113.898438 79.714844 114.367188 79.191406 114.894531 C 78.664062 115.417969 78.195312 115.988281 77.785156 116.605469 C 77.371094 117.222656 77.023438 117.875 76.738281 118.5625 C 76.457031 119.246094 76.242188 119.953125 76.097656 120.683594 C 75.953125 121.410156 75.878906 122.144531 75.878906 122.886719 C 75.878906 123.628906 75.953125 124.367188 76.097656 125.09375 C 76.242188 125.820312 76.457031 126.527344 76.738281 127.214844 C 77.023438 127.898438 77.371094 128.550781 77.785156 129.167969 C 78.195312 129.785156 78.664062 130.355469 79.191406 130.882812 C 79.714844 131.40625 80.285156 131.875 80.902344 132.289062 C 81.519531 132.699219 82.171875 133.050781 82.859375 133.332031 C 83.542969 133.617188 84.25 133.832031 84.980469 133.976562 C 85.707031 134.121094 86.441406 134.195312 87.183594 134.195312 C 87.925781 134.195312 88.664062 134.121094 89.390625 133.976562 C 90.117188 133.832031 90.824219 133.617188 91.511719 133.332031 C 92.195312 133.050781 92.847656 132.699219 93.464844 132.289062 C 94.082031 131.875 94.652344 131.40625 95.179688 130.882812 C 95.703125 130.355469 96.171875 129.785156 96.585938 129.167969 C 96.996094 128.550781 97.347656 127.898438 97.628906 127.214844 C 97.914062 126.527344 98.128906 125.820312 98.273438 125.09375 C 98.417969 124.367188 98.492188 123.628906 98.492188 122.886719 C 98.492188 122.144531 98.417969 121.410156 98.273438 120.683594 C 98.128906 119.953125 97.914062 119.246094 97.628906 118.5625 C 97.347656 117.875 96.996094 117.222656 96.585938 116.605469 C 96.171875 115.988281 95.703125 115.417969 95.179688 114.894531 C 94.652344 114.367188 94.082031 113.898438 93.464844 113.488281 C 92.847656 113.074219 92.195312 112.726562 91.511719 112.441406 C 90.824219 112.160156 90.117188 111.945312 89.390625 111.800781 C 88.664062 111.652344 87.925781 111.582031 87.183594 111.582031 Z M 87.183594 111.582031 " fill-opacity="1" fill-rule="nonzero"/></g><g clip-path="url(#da08293d0a)"><path fill="#ffbd4a" d="M 123.363281 123.636719 C 122.621094 123.636719 121.886719 123.710938 121.160156 123.855469 C 120.429688 124 119.722656 124.214844 119.039062 124.5 C 118.351562 124.78125 117.699219 125.128906 117.082031 125.542969 C 116.464844 125.957031 115.894531 126.425781 115.371094 126.949219 C 114.84375 127.472656 114.375 128.046875 113.964844 128.664062 C 113.550781 129.28125 113.203125 129.929688 112.917969 130.617188 C 112.636719 131.304688 112.421875 132.011719 112.277344 132.738281 C 112.132812 133.464844 112.058594 134.199219 112.058594 134.945312 C 112.058594 135.6875 112.132812 136.421875 112.277344 137.148438 C 112.421875 137.878906 112.636719 138.585938 112.917969 139.269531 C 113.203125 139.957031 113.550781 140.609375 113.964844 141.226562 C 114.375 141.84375 114.84375 142.414062 115.371094 142.9375 C 115.894531 143.460938 116.464844 143.929688 117.082031 144.34375 C 117.699219 144.757812 118.351562 145.105469 119.039062 145.390625 C 119.722656 145.671875 120.429688 145.886719 121.160156 146.03125 C 121.886719 146.175781 122.621094 146.25 123.363281 146.25 C 124.105469 146.25 124.84375 146.175781 125.570312 146.03125 C 126.296875 145.886719 127.003906 145.671875 127.691406 145.390625 C 128.378906 145.105469 129.027344 144.757812 129.644531 144.34375 C 130.261719 143.929688 130.835938 143.460938 131.359375 142.9375 C 131.882812 142.414062 132.351562 141.84375 132.765625 141.226562 C 133.175781 140.609375 133.527344 139.957031 133.808594 139.269531 C 134.09375 138.585938 134.308594 137.878906 134.453125 137.148438 C 134.597656 136.421875 134.671875 135.6875 134.671875 134.945312 C 134.671875 134.199219 134.597656 133.464844 134.453125 132.738281 C 134.308594 132.011719 134.09375 131.304688 133.808594 130.617188 C 133.527344 129.929688 133.175781 129.28125 132.765625 128.664062 C 132.351562 128.046875 131.882812 127.472656 131.359375 126.949219 C 130.835938 126.425781 130.261719 125.957031 129.644531 125.542969 C 129.027344 125.128906 128.378906 124.78125 127.691406 124.5 C 127.003906 124.214844 126.296875 124 125.570312 123.855469 C 124.84375 123.710938 124.105469 123.636719 123.363281 123.636719 Z M 123.363281 123.636719 " fill-opacity="1" fill-rule="nonzero"/></g><g fill="#ffffff" fill-opacity="1"><g transform="translate(36.597596, 191.546925)"><g><path d="M 3.65625 -27.828125 L 15.0625 -27.828125 C 19.226562 -27.828125 22.664062 -26.515625 25.375 -23.890625 C 28.09375 -21.265625 29.453125 -17.9375 29.453125 -13.90625 C 29.453125 -9.882812 28.085938 -6.5625 25.359375 -3.9375 C 22.628906 -1.3125 19.160156 0 14.953125 0 L 3.65625 0 Z M 8.34375 -23.609375 L 8.34375 -4.21875 L 15.1875 -4.21875 C 17.914062 -4.21875 20.1875 -5.125 22 -6.9375 C 23.8125 -8.75 24.71875 -11.0625 24.71875 -13.875 C 24.71875 -16.6875 23.785156 -19.007812 21.921875 -20.84375 C 20.054688 -22.6875 17.742188 -23.609375 14.984375 -23.609375 Z M 8.34375 -23.609375 "/></g></g></g><g fill="#ffffff" fill-opacity="1"><g transform="translate(84.898681, 191.546925)"><g><path d="M 21.625 -6.28125 L 7.59375 -6.28125 L 4.921875 0 L 0.046875 0 L 12.328125 -27.828125 L 17.125 -27.828125 L 29.296875 0 L 24.28125 0 Z M 19.828125 -10.453125 L 14.59375 -22.8125 L 9.34375 -10.453125 Z M 19.828125 -10.453125 "/></g></g></g><g fill="#ffffff" fill-opacity="1"><g transform="translate(131.729018, 191.546925)"><g><path d="M 8.34375 0 L 3.65625 0 L 3.65625 -27.828125 L 8.34375 -27.828125 Z M 8.34375 0 "/></g></g></g><g fill="#ffffff" fill-opacity="1"><g transform="translate(161.228371, 191.546925)"><g><path d="M 8.34375 -4.25 L 20.390625 -4.25 L 20.390625 0 L 3.65625 0 L 3.65625 -27.828125 L 8.34375 -27.828125 Z M 8.34375 -4.25 "/></g></g></g><g fill="#ffffff" fill-opacity="1"><g transform="translate(199.949705, 191.546925)"><g><path d="M 15.0625 -9.265625 L 15.0625 0 L 10.421875 0 L 10.421875 -9.109375 L 0.046875 -27.828125 L 4.765625 -27.828125 L 12.71875 -14.265625 L 20.515625 -27.828125 L 25.28125 -27.828125 Z M 15.0625 -9.265625 "/></g></g></g><g fill="#ffffff" fill-opacity="1"><g transform="translate(36.597596, 247.046921)"><g><path d="M 32.28125 0 L 27.46875 0 L 20.875 -21.703125 L 14.1875 0 L 9.34375 0 L 0.125 -27.828125 L 5.171875 -27.828125 L 11.921875 -5.203125 L 18.640625 -27.78125 L 23.25 -27.828125 L 30.015625 -5.203125 L 36.734375 -27.828125 L 41.578125 -27.828125 Z M 32.28125 0 "/></g></g></g><g fill="#ffffff" fill-opacity="1"><g transform="translate(95.273425, 247.046921)"><g><path d="M 5.59375 -23.90625 C 8.4375 -26.59375 11.9375 -27.9375 16.09375 -27.9375 C 20.257812 -27.9375 23.757812 -26.59375 26.59375 -23.90625 C 29.425781 -21.21875 30.84375 -17.882812 30.84375 -13.90625 C 30.84375 -9.9375 29.425781 -6.59375 26.59375 -3.875 C 23.757812 -1.15625 20.257812 0.203125 16.09375 0.203125 C 11.9375 0.203125 8.4375 -1.15625 5.59375 -3.875 C 2.757812 -6.59375 1.34375 -9.9375 1.34375 -13.90625 C 1.34375 -17.882812 2.757812 -21.21875 5.59375 -23.90625 Z M 16.140625 -23.734375 C 13.378906 -23.734375 11.019531 -22.785156 9.0625 -20.890625 C 7.101562 -18.992188 6.125 -16.664062 6.125 -13.90625 C 6.125 -11.15625 7.109375 -8.816406 9.078125 -6.890625 C 11.054688 -4.972656 13.410156 -4.015625 16.140625 -4.015625 C 18.867188 -4.015625 21.195312 -4.972656 23.125 -6.890625 C 25.0625 -8.816406 26.03125 -11.15625 26.03125 -13.90625 C 26.03125 -16.664062 25.0625 -18.992188 23.125 -20.890625 C 21.195312 -22.785156 18.867188 -23.734375 16.140625 -23.734375 Z M 16.140625 -23.734375 "/></g></g></g><g fill="#ffffff" fill-opacity="1"><g transform="translate(144.965757, 247.046921)"><g><path d="M 21.3125 0 L 16.21875 -8.421875 C 15.957031 -8.398438 15.535156 -8.390625 14.953125 -8.390625 L 8.34375 -8.390625 L 8.34375 0 L 3.65625 0 L 3.65625 -27.828125 L 14.953125 -27.828125 C 18.492188 -27.828125 21.242188 -27 23.203125 -25.34375 C 25.171875 -23.6875 26.15625 -21.347656 26.15625 -18.328125 C 26.15625 -16.097656 25.65625 -14.210938 24.65625 -12.671875 C 23.664062 -11.140625 22.242188 -10.015625 20.390625 -9.296875 L 26.625 0 Z M 8.34375 -12.59375 L 14.953125 -12.59375 C 19.453125 -12.59375 21.703125 -14.460938 21.703125 -18.203125 C 21.703125 -21.804688 19.453125 -23.609375 14.953125 -23.609375 L 8.34375 -23.609375 Z M 8.34375 -12.59375 "/></g></g></g><g fill="#ffffff" fill-opacity="1"><g transform="translate(191.199851, 247.046921)"><g><path d="M 22.21875 0 L 13.078125 -12.28125 L 8.34375 -7.078125 L 8.34375 0 L 3.65625 0 L 3.65625 -27.828125 L 8.34375 -27.828125 L 8.34375 -13.4375 L 21.625 -27.828125 L 27.15625 -27.828125 L 16.375 -15.9375 L 27.859375 0 Z M 22.21875 0 "/></g></g></g><g fill="#ffffff" fill-opacity="1"><g transform="translate(237.235195, 247.046921)"><g><path d="M 23.53125 -23.609375 L 8.34375 -23.609375 L 8.34375 -16.09375 L 21.9375 -16.09375 L 21.9375 -11.890625 L 8.34375 -11.890625 L 8.34375 -4.21875 L 24.015625 -4.21875 L 24.015625 0 L 3.65625 0 L 3.65625 -27.828125 L 23.53125 -27.828125 Z M 23.53125 -23.609375 "/></g></g></g><g fill="#ffffff" fill-opacity="1"><g transform="translate(280.806031, 247.046921)"><g><path d="M 21.3125 0 L 16.21875 -8.421875 C 15.957031 -8.398438 15.535156 -8.390625 14.953125 -8.390625 L 8.34375 -8.390625 L 8.34375 0 L 3.65625 0 L 3.65625 -27.828125 L 14.953125 -27.828125 C 18.492188 -27.828125 21.242188 -27 23.203125 -25.34375 C 25.171875 -23.6875 26.15625 -21.347656 26.15625 -18.328125 C 26.15625 -16.097656 25.65625 -14.210938 24.65625 -12.671875 C 23.664062 -11.140625 22.242188 -10.015625 20.390625 -9.296875 L 26.625 0 Z M 8.34375 -12.59375 L 14.953125 -12.59375 C 19.453125 -12.59375 21.703125 -14.460938 21.703125 -18.203125 C 21.703125 -21.804688 19.453125 -23.609375 14.953125 -23.609375 L 8.34375 -23.609375 Z M 8.34375 -12.59375 "/></g></g></g><g fill="#ffffff" fill-opacity="1"><g transform="translate(327.040113, 247.046921)"><g><path d="M 12.796875 -28.03125 C 16.398438 -28.03125 19.644531 -27.070312 22.53125 -25.15625 L 20.59375 -21.03125 C 17.757812 -22.75 15.039062 -23.609375 12.4375 -23.609375 C 11.03125 -23.609375 9.921875 -23.351562 9.109375 -22.84375 C 8.304688 -22.34375 7.90625 -21.628906 7.90625 -20.703125 C 7.90625 -19.773438 8.273438 -18.988281 9.015625 -18.34375 C 9.765625 -17.695312 10.691406 -17.21875 11.796875 -16.90625 C 12.910156 -16.601562 14.117188 -16.21875 15.421875 -15.75 C 16.722656 -15.289062 17.925781 -14.800781 19.03125 -14.28125 C 20.144531 -13.769531 21.066406 -12.960938 21.796875 -11.859375 C 22.523438 -10.765625 22.890625 -9.4375 22.890625 -7.875 C 22.890625 -5.4375 21.914062 -3.488281 19.96875 -2.03125 C 18.019531 -0.570312 15.5 0.15625 12.40625 0.15625 C 10.28125 0.15625 8.222656 -0.238281 6.234375 -1.03125 C 4.253906 -1.820312 2.519531 -2.894531 1.03125 -4.25 L 3.0625 -8.3125 C 4.46875 -7.007812 6.007812 -6.003906 7.6875 -5.296875 C 9.375 -4.597656 10.972656 -4.25 12.484375 -4.25 C 14.128906 -4.25 15.40625 -4.546875 16.3125 -5.140625 C 17.226562 -5.742188 17.6875 -6.570312 17.6875 -7.625 C 17.6875 -8.582031 17.316406 -9.382812 16.578125 -10.03125 C 15.835938 -10.6875 14.910156 -11.164062 13.796875 -11.46875 C 12.679688 -11.769531 11.472656 -12.140625 10.171875 -12.578125 C 8.878906 -13.015625 7.675781 -13.476562 6.5625 -13.96875 C 5.445312 -14.457031 4.515625 -15.242188 3.765625 -16.328125 C 3.023438 -17.421875 2.65625 -18.734375 2.65625 -20.265625 C 2.65625 -22.628906 3.582031 -24.515625 5.4375 -25.921875 C 7.300781 -27.328125 9.753906 -28.03125 12.796875 -28.03125 Z M 12.796875 -28.03125 "/></g></g></g><g fill="#ffffff" fill-opacity="1"><g transform="translate(37.500002, 287.555607)"><g><path d="M -0.15625 5.203125 C -1.007812 5.203125 -1.675781 5.078125 -2.15625 4.828125 L -2.15625 2.875 C -1.519531 3.050781 -0.851562 3.140625 -0.15625 3.140625 C 0.726562 3.140625 1.398438 2.867188 1.859375 2.328125 C 2.328125 1.796875 2.5625 1.019531 2.5625 0 L 2.5625 -19.734375 L 4.859375 -19.734375 L 4.859375 -0.1875 C 4.859375 1.519531 4.425781 2.84375 3.5625 3.78125 C 2.695312 4.726562 1.457031 5.203125 -0.15625 5.203125 Z M -0.15625 5.203125 "/></g></g></g><g fill="#ffffff" fill-opacity="1"><g transform="translate(52.349674, 287.555607)"><g><path d="M 19.84375 -9.890625 C 19.84375 -6.734375 19.039062 -4.25 17.4375 -2.4375 C 15.84375 -0.632812 13.625 0.265625 10.78125 0.265625 C 7.875 0.265625 5.628906 -0.617188 4.046875 -2.390625 C 2.472656 -4.171875 1.6875 -6.679688 1.6875 -9.921875 C 1.6875 -13.128906 2.476562 -15.617188 4.0625 -17.390625 C 5.644531 -19.160156 7.894531 -20.046875 10.8125 -20.046875 C 13.644531 -20.046875 15.859375 -19.144531 17.453125 -17.34375 C 19.046875 -15.539062 19.84375 -13.054688 19.84375 -9.890625 Z M 4.109375 -9.890625 C 4.109375 -7.222656 4.675781 -5.195312 5.8125 -3.8125 C 6.957031 -2.425781 8.613281 -1.734375 10.78125 -1.734375 C 12.96875 -1.734375 14.617188 -2.421875 15.734375 -3.796875 C 16.847656 -5.179688 17.40625 -7.210938 17.40625 -9.890625 C 17.40625 -12.546875 16.847656 -14.554688 15.734375 -15.921875 C 14.628906 -17.296875 12.988281 -17.984375 10.8125 -17.984375 C 8.625 -17.984375 6.957031 -17.289062 5.8125 -15.90625 C 4.675781 -14.53125 4.109375 -12.523438 4.109375 -9.890625 Z M 4.109375 -9.890625 "/></g></g></g><g fill="#ffffff" fill-opacity="1"><g transform="translate(81.345571, 287.555607)"><g><path d="M 17.609375 -19.734375 L 17.609375 -6.96875 C 17.609375 -4.71875 16.925781 -2.945312 15.5625 -1.65625 C 14.207031 -0.375 12.34375 0.265625 9.96875 0.265625 C 7.59375 0.265625 5.753906 -0.378906 4.453125 -1.671875 C 3.160156 -2.960938 2.515625 -4.742188 2.515625 -7.015625 L 2.515625 -19.734375 L 4.8125 -19.734375 L 4.8125 -6.859375 C 4.8125 -5.210938 5.257812 -3.945312 6.15625 -3.0625 C 7.050781 -2.175781 8.375 -1.734375 10.125 -1.734375 C 11.789062 -1.734375 13.070312 -2.175781 13.96875 -3.0625 C 14.863281 -3.957031 15.3125 -5.234375 15.3125 -6.890625 L 15.3125 -19.734375 Z M 17.609375 -19.734375 "/></g></g></g><g fill="#ffffff" fill-opacity="1"><g transform="translate(108.937646, 287.555607)"><g><path d="M 5 -8.203125 L 5 0 L 2.71875 0 L 2.71875 -19.734375 L 8.125 -19.734375 C 10.539062 -19.734375 12.328125 -19.269531 13.484375 -18.34375 C 14.640625 -17.414062 15.21875 -16.019531 15.21875 -14.15625 C 15.21875 -11.550781 13.894531 -9.785156 11.25 -8.859375 L 16.609375 0 L 13.90625 0 L 9.125 -8.203125 Z M 5 -10.171875 L 8.15625 -10.171875 C 9.769531 -10.171875 10.953125 -10.492188 11.703125 -11.140625 C 12.460938 -11.785156 12.84375 -12.75 12.84375 -14.03125 C 12.84375 -15.34375 12.457031 -16.285156 11.6875 -16.859375 C 10.925781 -17.429688 9.691406 -17.71875 7.984375 -17.71875 L 5 -17.71875 Z M 5 -10.171875 "/></g></g></g><g fill="#ffffff" fill-opacity="1"><g transform="translate(133.492591, 287.555607)"><g><path d="M 18.125 0 L 15.5 0 L 4.71875 -16.5625 L 4.609375 -16.5625 C 4.753906 -14.613281 4.828125 -12.832031 4.828125 -11.21875 L 4.828125 0 L 2.71875 0 L 2.71875 -19.734375 L 5.296875 -19.734375 L 16.0625 -3.234375 L 16.171875 -3.234375 C 16.148438 -3.484375 16.109375 -4.265625 16.046875 -5.578125 C 15.984375 -6.898438 15.960938 -7.84375 15.984375 -8.40625 L 15.984375 -19.734375 L 18.125 -19.734375 Z M 18.125 0 "/></g></g></g><g fill="#ffffff" fill-opacity="1"><g transform="translate(161.800065, 287.555607)"><g><path d="M 15.109375 0 L 12.65625 -6.28125 L 4.75 -6.28125 L 2.328125 0 L 0 0 L 7.796875 -19.8125 L 9.734375 -19.8125 L 17.484375 0 Z M 11.9375 -8.34375 L 9.65625 -14.453125 C 9.351562 -15.222656 9.046875 -16.171875 8.734375 -17.296875 C 8.535156 -16.429688 8.25 -15.484375 7.875 -14.453125 L 5.5625 -8.34375 Z M 11.9375 -8.34375 "/></g></g></g><g fill="#ffffff" fill-opacity="1"><g transform="translate(186.759959, 287.555607)"><g><path d="M 2.71875 0 L 2.71875 -19.734375 L 5 -19.734375 L 5 -2.078125 L 13.71875 -2.078125 L 13.71875 0 Z M 2.71875 0 "/></g></g></g></svg>